<!--
 Adding a new icon:
 - convert <svg> to <symbol>
 - add an id
 - remove width/height attributes
 - do not change any other attribute (fill, vieBox)
-->
<svg xmlns="http://www.w3.org/2000/svg" style="display:none">
    <symbol id="star" aria-hidden="true" xmlns="http://www.w3.org/2000/svg" fill="currentColor" viewBox="0 0 22 20">
        <path d="M20.924 7.625a1.523 1.523 0 0 0-1.238-1.044l-5.051-.734-2.259-4.577a1.534 1.534 0 0 0-2.752 0L7.365 5.847l-5.051.734A1.535 1.535 0 0 0 1.463 9.2l3.656 3.563-.863 5.031a1.532 1.532 0 0 0 2.226 1.616L11 17.033l4.518 2.375a1.534 1.534 0 0 0 2.226-1.617l-.863-5.03L20.537 9.2a1.523 1.523 0 0 0 .387-1.575Z"/>
    </symbol>
    <symbol id="edit" aria-hidden="true" xmlns="http://www.w3.org/2000/svg" width="24" height="24" fill="none" viewBox="0 0 24 24">
        <path stroke="currentColor" stroke-linecap="round" stroke-linejoin="round" stroke-width="1" d="m14.304 4.844 2.852 2.852M7 7H4a1 1 0 0 0-1 1v10a1 1 0 0 0 1 1h11a1 1 0 0 0 1-1v-4.5m2.409-9.91a2.017 2.017 0 0 1 0 2.853l-6.844 6.844L8 14l.713-3.565 6.844-6.844a2.015 2.015 0 0 1 2.852 0Z"/>
    </symbol>
    <symbol id="delete" aria-hidden="true" xmlns="http://www.w3.org/2000/svg" width="24" height="24" fill="none" viewBox="0 0 24 24">
        <path stroke="currentColor" stroke-linecap="round" stroke-linejoin="round" stroke-width="1" d="M5 7h14m-9 3v8m4-8v8M10 3h4a1 1 0 0 1 1 1v3H9V4a1 1 0 0 1 1-1ZM6 7h12v13a1 1 0 0 1-1 1H7a1 1 0 0 1-1-1V7Z"/>
    </symbol>
    <symbol id="dashboard" aria-hidden="true" xmlns="http://www.w3.org/2000/svg" fill="currentColor" viewBox="0 0 22 21">
        <path d="M16.975 11H10V4.025a1 1 0 0 0-1.066-.998 8.5 8.5 0 1 0 9.039 9.039.999.999 0 0 0-1-1.066h.002Z"/>
        <path d="M12.5 0c-.157 0-.311.01-.565.027A1 1 0 0 0 11 1.02V10h8.975a1 1 0 0 0 1-.935c.013-.188.028-.374.028-.565A8.51 8.51 0 0 0 12.5 0Z"/>
    </symbol>
    <symbol id="euro" aria-hidden="true" xmlns="http://www.w3.org/2000/svg" fill="none" viewBox="0 0 24 24">
        <path stroke="currentColor" stroke-linecap="round" stroke-linejoin="round" stroke-width="2" d="M6 10h9.231M6 14h9.231M18 5.086A5.95 5.95 0 0 0 14.615 4c-3.738 0-6.769 3.582-6.769 8s3.031 8 6.769 8A5.94 5.94 0 0 0 18 18.916"/>
    </symbol>
    <symbol id="calendar-week" aria-hidden="true" xmlns="http://www.w3.org/2000/svg" fill="currentColor" viewBox="0 0 20 20">
        <path d="M20 4a2 2 0 0 0-2-2h-2V1a1 1 0 0 0-2 0v1h-3V1a1 1 0 0 0-2 0v1H6V1a1 1 0 0 0-2 0v1H2a2 2 0 0 0-2 2v2h20V4ZM0 18a2 2 0 0 0 2 2h16a2 2 0 0 0 2-2V8H0v10Zm5-8h10a1 1 0 0 1 0 2H5a1 1 0 0 1 0-2Z"/>
    </symbol>
    <symbol id="barcode" aria-hidden="true" xmlns="http://www.w3.org/2000/svg" fill="none" viewBox="0 0 24 24">
        <path stroke="currentColor" stroke-linecap="round" stroke-width="2" d="M2.9917 4.9834V18.917M9.96265 4.9834V18.917M15.9378 4.9834V18.917m2.9875-13.9336V18.917"/>
        <path stroke="currentColor" stroke-linecap="round" d="M5.47925 4.4834V19.417m1.9917-14.9336V19.417M21.4129 4.4834V19.417M13.4461 4.4834V19.417"/>
    </symbol>
    <symbol id="save" xmlns="http://www.w3.org/2000/svg" viewBox="0 0 640 640">
        <path d="M280.8 68.3C305.4 54.3 335.6 54.3 360.1 68.3L520.1 159.7C543.5 173 558.4 197.2 560.2 223.8L560.4 229.2L560.4 410.9C560.4 439.6 545 466.1 520.1 480.4L360.1 571.8C335.5 585.8 305.3 585.8 280.8 571.8L120.8 480.4C95.9 466.2 80.5 439.7 80.5 411L80.5 229.2C80.5 200.5 95.9 174 120.8 159.8L280.8 68.4zM113.4 220.1C112.8 223.1 112.5 226.1 112.5 229.2L112.5 411C112.5 428.2 121.8 444.1 136.7 452.7L296.7 544.1C299.2 545.5 301.9 546.6 304.5 547.6L304.5 329.4L113.4 220.2zM336.4 329.3L336.4 547.5C339.1 546.6 341.7 545.5 344.2 544L504.2 452.6C519.2 444.1 528.4 428.1 528.4 410.9L528.4 229.2L528 222.8C527.9 221.9 527.6 221 527.5 220.1L336.4 329.3zM344.3 96C329.5 87.6 311.4 87.6 296.6 96L136.6 187.4C134 188.9 131.7 190.6 129.5 192.5L320.5 301.6L511.4 192.5C509.2 190.6 506.9 188.9 504.3 187.5L344.3 96z"/>
    </symbol>
</svg>
