<!--!Font Awesome Free v7.1.0 by @fontawesome - https://fontawesome.com License - https://fontawesome.com/license/free Copyright 2025 Fonticons, Inc.-->
<!--
 Adding a new icon:
 - convert <svg> to <symbol>
 - add an id
 - remove width/height attributes
 - do not change any other attribute (fill, vieBox)
-->
<svg xmlns="http://www.w3.org/2000/svg" style="display:none">
    <symbol id="star" aria-hidden="true" xmlns="http://www.w3.org/2000/svg" fill="currentColor" viewBox="0 0 22 20">
        <path d="M20.924 7.625a1.523 1.523 0 0 0-1.238-1.044l-5.051-.734-2.259-4.577a1.534 1.534 0 0 0-2.752 0L7.365 5.847l-5.051.734A1.535 1.535 0 0 0 1.463 9.2l3.656 3.563-.863 5.031a1.532 1.532 0 0 0 2.226 1.616L11 17.033l4.518 2.375a1.534 1.534 0 0 0 2.226-1.617l-.863-5.03L20.537 9.2a1.523 1.523 0 0 0 .387-1.575Z"/>
    </symbol>
    <symbol id="edit" aria-hidden="true" xmlns="http://www.w3.org/2000/svg" width="24" height="24" fill="none" viewBox="0 0 24 24">
        <path stroke="currentColor" stroke-linecap="round" stroke-linejoin="round" stroke-width="1" d="m14.304 4.844 2.852 2.852M7 7H4a1 1 0 0 0-1 1v10a1 1 0 0 0 1 1h11a1 1 0 0 0 1-1v-4.5m2.409-9.91a2.017 2.017 0 0 1 0 2.853l-6.844 6.844L8 14l.713-3.565 6.844-6.844a2.015 2.015 0 0 1 2.852 0Z"/>
    </symbol>
    <symbol id="delete" aria-hidden="true" xmlns="http://www.w3.org/2000/svg" width="24" height="24" fill="none" viewBox="0 0 24 24">
        <path stroke="currentColor" stroke-linecap="round" stroke-linejoin="round" stroke-width="1" d="M5 7h14m-9 3v8m4-8v8M10 3h4a1 1 0 0 1 1 1v3H9V4a1 1 0 0 1 1-1ZM6 7h12v13a1 1 0 0 1-1 1H7a1 1 0 0 1-1-1V7Z"/>
    </symbol>
    <symbol id="recycle" aria-hidden="true" xmlns="http://www.w3.org/2000/svg" width="24" height="24" fill="currentColor" viewBox="0 0 640 640">
        <path stroke="currentColor" stroke-linecap="round" stroke-linejoin="round" stroke-width="1" d="M216.3 124C262.5 44 378 44 424.2 124L461.5 188.6L489.2 172.6C497.6 167.7 508.1 168.4 515.8 174.3C523.5 180.2 526.9 190.2 524.4 199.6L500.9 287C497.5 299.8 484.3 307.4 471.5 304L384.1 280.6C374.7 278.1 367.8 270.2 366.5 260.6C365.2 251 369.9 241.5 378.3 236.7L406 220.7L368.7 156.1C347.1 118.8 293.3 118.8 271.7 156.1L266.4 165.2C257.6 180.5 238 185.7 222.7 176.9C207.4 168.1 202.2 148.5 211 133.1L216.3 124zM513.7 343.1C529 334.3 548.6 339.5 557.4 354.8L562.7 363.9C608.9 443.9 551.2 543.9 458.8 543.9L384.2 543.9L384.2 575.9C384.2 585.6 378.4 594.4 369.4 598.1C360.4 601.8 350.1 599.8 343.2 592.9L279.2 528.9C269.8 519.5 269.8 504.3 279.2 495L343.2 431C350.1 424.1 360.4 422.1 369.4 425.8C378.4 429.5 384.2 438.3 384.2 448L384.2 480L458.8 480C501.9 480 528.9 433.3 507.3 396L502 386.9C493.2 371.6 498.4 352 513.7 343.2zM115 299.4L87.3 283.4C78.9 278.5 74.2 269.1 75.5 259.5C76.8 249.9 83.7 242 93.1 239.5L180.5 216C193.3 212.6 206.5 220.2 209.9 233L233.3 320.4C235.8 329.8 232.4 339.7 224.7 345.7C217 351.7 206.5 352.3 198.1 347.4L170.4 331.4L133.1 396C111.5 433.3 138.5 480 181.6 480L192.2 480C209.9 480 224.2 494.3 224.2 512C224.2 529.7 209.9 544 192.2 544L181.6 544C89.3 544 31.6 444 77.8 364L115 299.4z"/>
    </symbol>
    <symbol id="dashboard" aria-hidden="true" xmlns="http://www.w3.org/2000/svg" fill="currentColor" viewBox="0 0 22 21">
        <path d="M16.975 11H10V4.025a1 1 0 0 0-1.066-.998 8.5 8.5 0 1 0 9.039 9.039.999.999 0 0 0-1-1.066h.002Z"/>
        <path d="M12.5 0c-.157 0-.311.01-.565.027A1 1 0 0 0 11 1.02V10h8.975a1 1 0 0 0 1-.935c.013-.188.028-.374.028-.565A8.51 8.51 0 0 0 12.5 0Z"/>
    </symbol>
    <symbol id="euro" aria-hidden="true" xmlns="http://www.w3.org/2000/svg" fill="none" viewBox="0 0 24 24">
        <path stroke="currentColor" stroke-linecap="round" stroke-linejoin="round" stroke-width="2" d="M6 10h9.231M6 14h9.231M18 5.086A5.95 5.95 0 0 0 14.615 4c-3.738 0-6.769 3.582-6.769 8s3.031 8 6.769 8A5.94 5.94 0 0 0 18 18.916"/>
    </symbol>
    <symbol id="calendar-week" aria-hidden="true" xmlns="http://www.w3.org/2000/svg" fill="currentColor" viewBox="0 0 20 20">
        <path d="M20 4a2 2 0 0 0-2-2h-2V1a1 1 0 0 0-2 0v1h-3V1a1 1 0 0 0-2 0v1H6V1a1 1 0 0 0-2 0v1H2a2 2 0 0 0-2 2v2h20V4ZM0 18a2 2 0 0 0 2 2h16a2 2 0 0 0 2-2V8H0v10Zm5-8h10a1 1 0 0 1 0 2H5a1 1 0 0 1 0-2Z"/>
    </symbol>
    <symbol id="barcode" aria-hidden="true" xmlns="http://www.w3.org/2000/svg" fill="none" viewBox="0 0 24 24">
        <path stroke="currentColor" stroke-linecap="round" stroke-width="2" d="M2.9917 4.9834V18.917M9.96265 4.9834V18.917M15.9378 4.9834V18.917m2.9875-13.9336V18.917"/>
        <path stroke="currentColor" stroke-linecap="round" d="M5.47925 4.4834V19.417m1.9917-14.9336V19.417M21.4129 4.4834V19.417M13.4461 4.4834V19.417"/>
    </symbol>
    <symbol id="save" xmlns="http://www.w3.org/2000/svg" viewBox="0 0 640 640">
        <path d="M280.8 68.3C305.4 54.3 335.6 54.3 360.1 68.3L520.1 159.7C543.5 173 558.4 197.2 560.2 223.8L560.4 229.2L560.4 410.9C560.4 439.6 545 466.1 520.1 480.4L360.1 571.8C335.5 585.8 305.3 585.8 280.8 571.8L120.8 480.4C95.9 466.2 80.5 439.7 80.5 411L80.5 229.2C80.5 200.5 95.9 174 120.8 159.8L280.8 68.4zM113.4 220.1C112.8 223.1 112.5 226.1 112.5 229.2L112.5 411C112.5 428.2 121.8 444.1 136.7 452.7L296.7 544.1C299.2 545.5 301.9 546.6 304.5 547.6L304.5 329.4L113.4 220.2zM336.4 329.3L336.4 547.5C339.1 546.6 341.7 545.5 344.2 544L504.2 452.6C519.2 444.1 528.4 428.1 528.4 410.9L528.4 229.2L528 222.8C527.9 221.9 527.6 221 527.5 220.1L336.4 329.3zM344.3 96C329.5 87.6 311.4 87.6 296.6 96L136.6 187.4C134 188.9 131.7 190.6 129.5 192.5L320.5 301.6L511.4 192.5C509.2 190.6 506.9 188.9 504.3 187.5L344.3 96z"/>
    </symbol>
    <symbol id="exclamation" aria-hidden="true" xmlns="http://www.w3.org/2000/svg" width="24" height="24" fill="currentColor" viewBox="0 0 24 24">
        <path fill-rule="evenodd" d="M2 12C2 6.477 6.477 2 12 2s10 4.477 10 10-4.477 10-10 10S2 17.523 2 12Zm11-4a1 1 0 1 0-2 0v5a1 1 0 1 0 2 0V8Zm-1 7a1 1 0 1 0 0 2h.01a1 1 0 1 0 0-2H12Z" clip-rule="evenodd"/>
    </symbol>

</svg>
