<svg xmlns="http://www.w3.org/2000/svg" style="display:none">
    <symbol id="star" aria-hidden="true" xmlns="http://www.w3.org/2000/svg" fill="currentColor" viewBox="0 0 22 20">
        <path d="M20.924 7.625a1.523 1.523 0 0 0-1.238-1.044l-5.051-.734-2.259-4.577a1.534 1.534 0 0 0-2.752 0L7.365 5.847l-5.051.734A1.535 1.535 0 0 0 1.463 9.2l3.656 3.563-.863 5.031a1.532 1.532 0 0 0 2.226 1.616L11 17.033l4.518 2.375a1.534 1.534 0 0 0 2.226-1.617l-.863-5.03L20.537 9.2a1.523 1.523 0 0 0 .387-1.575Z"/>
    </symbol>
    <symbol id="edit" aria-hidden="true" xmlns="http://www.w3.org/2000/svg" width="24" height="24" fill="none" viewBox="0 0 24 24">
        <path stroke="currentColor" stroke-linecap="round" stroke-linejoin="round" stroke-width="1" d="m14.304 4.844 2.852 2.852M7 7H4a1 1 0 0 0-1 1v10a1 1 0 0 0 1 1h11a1 1 0 0 0 1-1v-4.5m2.409-9.91a2.017 2.017 0 0 1 0 2.853l-6.844 6.844L8 14l.713-3.565 6.844-6.844a2.015 2.015 0 0 1 2.852 0Z"/>
    </symbol>
    <symbol id="delete" aria-hidden="true" xmlns="http://www.w3.org/2000/svg" width="24" height="24" fill="none" viewBox="0 0 24 24">
        <path stroke="currentColor" stroke-linecap="round" stroke-linejoin="round" stroke-width="1" d="M5 7h14m-9 3v8m4-8v8M10 3h4a1 1 0 0 1 1 1v3H9V4a1 1 0 0 1 1-1ZM6 7h12v13a1 1 0 0 1-1 1H7a1 1 0 0 1-1-1V7Z"/>
    </symbol>
    <symbol id="dashboard" aria-hidden="true" xmlns="http://www.w3.org/2000/svg" fill="currentColor" viewBox="0 0 22 21">
        <path d="M16.975 11H10V4.025a1 1 0 0 0-1.066-.998 8.5 8.5 0 1 0 9.039 9.039.999.999 0 0 0-1-1.066h.002Z"/>
        <path d="M12.5 0c-.157 0-.311.01-.565.027A1 1 0 0 0 11 1.02V10h8.975a1 1 0 0 0 1-.935c.013-.188.028-.374.028-.565A8.51 8.51 0 0 0 12.5 0Z"/>
    </symbol>
</svg>
