<svg xmlns="http://www.w3.org/2000/svg" style="display:none">
    <symbol id="star" aria-hidden="true" xmlns="http://www.w3.org/2000/svg" fill="currentColor" viewBox="0 0 22 20">
        <path d="M20.924 7.625a1.523 1.523 0 0 0-1.238-1.044l-5.051-.734-2.259-4.577a1.534 1.534 0 0 0-2.752 0L7.365 5.847l-5.051.734A1.535 1.535 0 0 0 1.463 9.2l3.656 3.563-.863 5.031a1.532 1.532 0 0 0 2.226 1.616L11 17.033l4.518 2.375a1.534 1.534 0 0 0 2.226-1.617l-.863-5.03L20.537 9.2a1.523 1.523 0 0 0 .387-1.575Z"/>
    </symbol>
    <symbol id="edit" aria-hidden="true" xmlns="http://www.w3.org/2000/svg" width="24" height="24" fill="none" viewBox="0 0 24 24">
        <path stroke="currentColor" stroke-linecap="round" stroke-linejoin="round" stroke-width="2" d="m14.304 4.844 2.852 2.852M7 7H4a1 1 0 0 0-1 1v10a1 1 0 0 0 1 1h11a1 1 0 0 0 1-1v-4.5m2.409-9.91a2.017 2.017 0 0 1 0 2.853l-6.844 6.844L8 14l.713-3.565 6.844-6.844a2.015 2.015 0 0 1 2.852 0Z"/>
    </symbol>
    <symbol id="delete" aria-hidden="true" xmlns="http://www.w3.org/2000/svg" width="24" height="24" fill="none" viewBox="0 0 24 24">
        <path stroke="currentColor" stroke-linecap="round" stroke-linejoin="round" stroke-width="2" d="M3 15v3c0 .5523.44772 1 1 1h16c.5523 0 1-.4477 1-1v-3M3 15V6c0-.55228.44772-1 1-1h16c.5523 0 1 .44772 1 1v9M3 15h18M8 15v4m4-4v4m4-4v4m-5.5061-7.4939L12 10m0 0 1.5061-1.50614M12 10l1.5061 1.5061M12 10l-1.5061-1.50614"/>
    </symbol>
</svg>
